<mxfile host="app.diagrams.net" agent="Mozilla/5.0 (Windows NT 10.0; Win64; x64; rv:136.0) Gecko/20100101 Firefox/136.0" version="26.1.1">
  <diagram name="Pagina-1" id="rOT93RseFwFXbodsRm7L">
    <mxGraphModel dx="696" dy="512" grid="1" gridSize="10" guides="1" tooltips="1" connect="1" arrows="1" fold="1" page="1" pageScale="1" pageWidth="8268" pageHeight="1169" math="0" shadow="0">
      <root>
        <mxCell id="0" />
        <mxCell id="1" parent="0" />
        <mxCell id="ZrBkXSx4t8RdNaZ83y0n-156" value="" style="edgeStyle=orthogonalEdgeStyle;rounded=0;orthogonalLoop=1;jettySize=auto;html=1;" parent="1" source="ZrBkXSx4t8RdNaZ83y0n-151" target="ZrBkXSx4t8RdNaZ83y0n-152" edge="1">
          <mxGeometry relative="1" as="geometry" />
        </mxCell>
        <mxCell id="ZrBkXSx4t8RdNaZ83y0n-163" value="RDA = 1" style="edgeLabel;html=1;align=center;verticalAlign=middle;resizable=0;points=[];" parent="ZrBkXSx4t8RdNaZ83y0n-156" vertex="1" connectable="0">
          <mxGeometry relative="1" as="geometry">
            <mxPoint as="offset" />
          </mxGeometry>
        </mxCell>
        <mxCell id="ZrBkXSx4t8RdNaZ83y0n-151" value="WAIT_RDA" style="ellipse;whiteSpace=wrap;html=1;" parent="1" vertex="1">
          <mxGeometry x="160" y="360" width="80" height="40" as="geometry" />
        </mxCell>
        <mxCell id="ZrBkXSx4t8RdNaZ83y0n-157" value="" style="edgeStyle=orthogonalEdgeStyle;rounded=0;orthogonalLoop=1;jettySize=auto;html=1;" parent="1" source="ZrBkXSx4t8RdNaZ83y0n-152" target="ZrBkXSx4t8RdNaZ83y0n-153" edge="1">
          <mxGeometry relative="1" as="geometry" />
        </mxCell>
        <mxCell id="ZrBkXSx4t8RdNaZ83y0n-152" value="READ_DATA" style="ellipse;whiteSpace=wrap;html=1;" parent="1" vertex="1">
          <mxGeometry x="320" y="360" width="80" height="40" as="geometry" />
        </mxCell>
        <mxCell id="ZrBkXSx4t8RdNaZ83y0n-153" value="CHECK_ERR" style="ellipse;whiteSpace=wrap;html=1;" parent="1" vertex="1">
          <mxGeometry x="480" y="360" width="120" height="40" as="geometry" />
        </mxCell>
        <mxCell id="ZrBkXSx4t8RdNaZ83y0n-159" style="edgeStyle=orthogonalEdgeStyle;rounded=0;orthogonalLoop=1;jettySize=auto;html=1;exitX=0.5;exitY=1;exitDx=0;exitDy=0;entryX=0.5;entryY=1;entryDx=0;entryDy=0;curved=1;" parent="1" source="ZrBkXSx4t8RdNaZ83y0n-153" target="ZrBkXSx4t8RdNaZ83y0n-151" edge="1">
          <mxGeometry relative="1" as="geometry">
            <mxPoint x="340" y="500" as="sourcePoint" />
            <Array as="points">
              <mxPoint x="540" y="460" />
              <mxPoint x="200" y="460" />
            </Array>
          </mxGeometry>
        </mxCell>
        <mxCell id="ZrBkXSx4t8RdNaZ83y0n-161" value="" style="endArrow=classic;html=1;rounded=0;exitX=0;exitY=0;exitDx=0;exitDy=0;entryX=1;entryY=0;entryDx=0;entryDy=0;curved=1;" parent="1" source="ZrBkXSx4t8RdNaZ83y0n-151" target="ZrBkXSx4t8RdNaZ83y0n-151" edge="1">
          <mxGeometry width="50" height="50" relative="1" as="geometry">
            <mxPoint x="180" y="350" as="sourcePoint" />
            <mxPoint x="230" y="300" as="targetPoint" />
            <Array as="points">
              <mxPoint x="170" y="340" />
              <mxPoint x="230" y="340" />
            </Array>
          </mxGeometry>
        </mxCell>
        <mxCell id="ZrBkXSx4t8RdNaZ83y0n-162" value="RDA = 0" style="edgeLabel;html=1;align=center;verticalAlign=middle;resizable=0;points=[];" parent="ZrBkXSx4t8RdNaZ83y0n-161" vertex="1" connectable="0">
          <mxGeometry relative="1" as="geometry">
            <mxPoint as="offset" />
          </mxGeometry>
        </mxCell>
        <mxCell id="ZrBkXSx4t8RdNaZ83y0n-165" value="" style="endArrow=classic;html=1;rounded=0;exitX=0;exitY=0;exitDx=0;exitDy=0;entryX=1;entryY=0;entryDx=0;entryDy=0;curved=1;" parent="1" source="ZrBkXSx4t8RdNaZ83y0n-153" target="ZrBkXSx4t8RdNaZ83y0n-153" edge="1">
          <mxGeometry width="50" height="50" relative="1" as="geometry">
            <mxPoint x="512" y="360" as="sourcePoint" />
            <mxPoint x="568" y="360" as="targetPoint" />
            <Array as="points">
              <mxPoint x="490" y="340" />
              <mxPoint x="590" y="340" />
            </Array>
          </mxGeometry>
        </mxCell>
        <mxCell id="ZrBkXSx4t8RdNaZ83y0n-166" value="req = 1" style="edgeLabel;html=1;align=center;verticalAlign=middle;resizable=0;points=[];" parent="ZrBkXSx4t8RdNaZ83y0n-165" vertex="1" connectable="0">
          <mxGeometry relative="1" as="geometry">
            <mxPoint as="offset" />
          </mxGeometry>
        </mxCell>
        <mxCell id="ZrBkXSx4t8RdNaZ83y0n-168" value="&lt;div style=&quot;line-height: 60%;&quot;&gt;&lt;font style=&quot;font-size: 6px; line-height: 60%;&quot;&gt;mem_read = 1&lt;/font&gt;&lt;/div&gt;&lt;div style=&quot;line-height: 60%;&quot;&gt;&lt;font style=&quot;font-size: 6px; line-height: 60%;&quot;&gt;counter_enable = 1&lt;/font&gt;&lt;/div&gt;&lt;div style=&quot;line-height: 60%;&quot;&gt;&lt;font style=&quot;font-size: 6px; line-height: 60%;&quot;&gt;RD = 1&lt;/font&gt;&lt;/div&gt;" style="text;html=1;align=center;verticalAlign=middle;whiteSpace=wrap;rounded=0;spacing=2;" parent="1" vertex="1">
          <mxGeometry x="332.5" y="400" width="55" height="30" as="geometry" />
        </mxCell>
        <mxCell id="ZrBkXSx4t8RdNaZ83y0n-171" value="&lt;div style=&quot;line-height: 60%;&quot;&gt;&lt;font style=&quot;font-size: 6px; line-height: 60%;&quot;&gt;mem_read = 0&lt;/font&gt;&lt;/div&gt;&lt;div style=&quot;line-height: 60%;&quot;&gt;&lt;font style=&quot;font-size: 6px; line-height: 60%;&quot;&gt;counter_enable = 0&lt;/font&gt;&lt;/div&gt;&lt;div style=&quot;line-height: 60%;&quot;&gt;&lt;font style=&quot;font-size: 6px; line-height: 60%;&quot;&gt;RD = 0&lt;/font&gt;&lt;/div&gt;&lt;div style=&quot;line-height: 60%;&quot;&gt;&lt;font style=&quot;font-size: 6px; line-height: 60%;&quot;&gt;error = PE or FE or OE&lt;/font&gt;&lt;/div&gt;" style="text;html=1;align=center;verticalAlign=middle;whiteSpace=wrap;rounded=0;spacing=2;" parent="1" vertex="1">
          <mxGeometry x="550" y="400" width="70" height="40" as="geometry" />
        </mxCell>
        <mxCell id="j58u5I5FuV18QWJM3rBH-1" value="" style="endArrow=classic;html=1;rounded=0;entryX=0;entryY=0.5;entryDx=0;entryDy=0;" edge="1" parent="1" target="ZrBkXSx4t8RdNaZ83y0n-151">
          <mxGeometry width="50" height="50" relative="1" as="geometry">
            <mxPoint x="130" y="350" as="sourcePoint" />
            <mxPoint x="170" y="370" as="targetPoint" />
          </mxGeometry>
        </mxCell>
        <mxCell id="j58u5I5FuV18QWJM3rBH-2" value="reset" style="edgeLabel;html=1;align=center;verticalAlign=middle;resizable=0;points=[];" vertex="1" connectable="0" parent="j58u5I5FuV18QWJM3rBH-1">
          <mxGeometry relative="1" as="geometry">
            <mxPoint as="offset" />
          </mxGeometry>
        </mxCell>
      </root>
    </mxGraphModel>
  </diagram>
</mxfile>
